<svg width="19" height="18" viewBox="0 0 19 18" fill="none" xmlns="http://www.w3.org/2000/svg">
<g opacity="0.75" clip-path="url(#clip0)">
<path fill-rule="evenodd" clip-rule="evenodd" d="M16.25 0H2.75C2.15326 0 1.58097 0.237053 1.15901 0.65901C0.737053 1.08097 0.5 1.65326 0.5 2.25L0.5 15.75C0.5 16.3467 0.737053 16.919 1.15901 17.341C1.58097 17.7629 2.15326 18 2.75 18H16.25C16.8467 18 17.419 17.7629 17.841 17.341C18.2629 16.919 18.5 16.3467 18.5 15.75V2.25C18.5 1.65326 18.2629 1.08097 17.841 0.65901C17.419 0.237053 16.8467 0 16.25 0V0ZM1.625 4.33913C1.625 3.807 2.129 3.375 2.75 3.375H16.25C16.871 3.375 17.375 3.807 17.375 4.33913V15.9109C17.375 16.443 16.871 16.875 16.25 16.875H2.75C2.129 16.875 1.625 16.443 1.625 15.9109V4.33913Z" fill="#007BFF"/>
<path fill-rule="evenodd" clip-rule="evenodd" d="M7.8125 7.875C8.11087 7.875 8.39702 7.75647 8.608 7.54549C8.81897 7.33452 8.9375 7.04837 8.9375 6.75C8.9375 6.45163 8.81897 6.16548 8.608 5.95451C8.39702 5.74353 8.11087 5.625 7.8125 5.625C7.51413 5.625 7.22798 5.74353 7.017 5.95451C6.80603 6.16548 6.6875 6.45163 6.6875 6.75C6.6875 7.04837 6.80603 7.33452 7.017 7.54549C7.22798 7.75647 7.51413 7.875 7.8125 7.875ZM11.1875 7.875C11.4859 7.875 11.772 7.75647 11.983 7.54549C12.194 7.33452 12.3125 7.04837 12.3125 6.75C12.3125 6.45163 12.194 6.16548 11.983 5.95451C11.772 5.74353 11.4859 5.625 11.1875 5.625C10.8891 5.625 10.603 5.74353 10.392 5.95451C10.181 6.16548 10.0625 6.45163 10.0625 6.75C10.0625 7.04837 10.181 7.33452 10.392 7.54549C10.603 7.75647 10.8891 7.875 11.1875 7.875ZM14.5625 7.875C14.8609 7.875 15.147 7.75647 15.358 7.54549C15.569 7.33452 15.6875 7.04837 15.6875 6.75C15.6875 6.45163 15.569 6.16548 15.358 5.95451C15.147 5.74353 14.8609 5.625 14.5625 5.625C14.2641 5.625 13.978 5.74353 13.767 5.95451C13.556 6.16548 13.4375 6.45163 13.4375 6.75C13.4375 7.04837 13.556 7.33452 13.767 7.54549C13.978 7.75647 14.2641 7.875 14.5625 7.875ZM4.4375 11.25C4.73587 11.25 5.02202 11.1315 5.23299 10.9205C5.44397 10.7095 5.5625 10.4234 5.5625 10.125C5.5625 9.82663 5.44397 9.54048 5.23299 9.3295C5.02202 9.11853 4.73587 9 4.4375 9C4.13913 9 3.85298 9.11853 3.642 9.3295C3.43103 9.54048 3.3125 9.82663 3.3125 10.125C3.3125 10.4234 3.43103 10.7095 3.642 10.9205C3.85298 11.1315 4.13913 11.25 4.4375 11.25ZM7.8125 11.25C8.11087 11.25 8.39702 11.1315 8.608 10.9205C8.81897 10.7095 8.9375 10.4234 8.9375 10.125C8.9375 9.82663 8.81897 9.54048 8.608 9.3295C8.39702 9.11853 8.11087 9 7.8125 9C7.51413 9 7.22798 9.11853 7.017 9.3295C6.80603 9.54048 6.6875 9.82663 6.6875 10.125C6.6875 10.4234 6.80603 10.7095 7.017 10.9205C7.22798 11.1315 7.51413 11.25 7.8125 11.25ZM11.1875 11.25C11.4859 11.25 11.772 11.1315 11.983 10.9205C12.194 10.7095 12.3125 10.4234 12.3125 10.125C12.3125 9.82663 12.194 9.54048 11.983 9.3295C11.772 9.11853 11.4859 9 11.1875 9C10.8891 9 10.603 9.11853 10.392 9.3295C10.181 9.54048 10.0625 9.82663 10.0625 10.125C10.0625 10.4234 10.181 10.7095 10.392 10.9205C10.603 11.1315 10.8891 11.25 11.1875 11.25ZM14.5625 11.25C14.8609 11.25 15.147 11.1315 15.358 10.9205C15.569 10.7095 15.6875 10.4234 15.6875 10.125C15.6875 9.82663 15.569 9.54048 15.358 9.3295C15.147 9.11853 14.8609 9 14.5625 9C14.2641 9 13.978 9.11853 13.767 9.3295C13.556 9.54048 13.4375 9.82663 13.4375 10.125C13.4375 10.4234 13.556 10.7095 13.767 10.9205C13.978 11.1315 14.2641 11.25 14.5625 11.25ZM4.4375 14.625C4.73587 14.625 5.02202 14.5065 5.23299 14.2955C5.44397 14.0845 5.5625 13.7984 5.5625 13.5C5.5625 13.2016 5.44397 12.9155 5.23299 12.7045C5.02202 12.4935 4.73587 12.375 4.4375 12.375C4.13913 12.375 3.85298 12.4935 3.642 12.7045C3.43103 12.9155 3.3125 13.2016 3.3125 13.5C3.3125 13.7984 3.43103 14.0845 3.642 14.2955C3.85298 14.5065 4.13913 14.625 4.4375 14.625ZM7.8125 14.625C8.11087 14.625 8.39702 14.5065 8.608 14.2955C8.81897 14.0845 8.9375 13.7984 8.9375 13.5C8.9375 13.2016 8.81897 12.9155 8.608 12.7045C8.39702 12.4935 8.11087 12.375 7.8125 12.375C7.51413 12.375 7.22798 12.4935 7.017 12.7045C6.80603 12.9155 6.6875 13.2016 6.6875 13.5C6.6875 13.7984 6.80603 14.0845 7.017 14.2955C7.22798 14.5065 7.51413 14.625 7.8125 14.625ZM11.1875 14.625C11.4859 14.625 11.772 14.5065 11.983 14.2955C12.194 14.0845 12.3125 13.7984 12.3125 13.5C12.3125 13.2016 12.194 12.9155 11.983 12.7045C11.772 12.4935 11.4859 12.375 11.1875 12.375C10.8891 12.375 10.603 12.4935 10.392 12.7045C10.181 12.9155 10.0625 13.2016 10.0625 13.5C10.0625 13.7984 10.181 14.0845 10.392 14.2955C10.603 14.5065 10.8891 14.625 11.1875 14.625Z" fill="#007BFF"/>
</g>
<defs>
<clipPath id="clip0">
<rect width="18" height="18" fill="white" transform="translate(0.5)"/>
</clipPath>
</defs>
</svg>
